# xmcd
#
# Track frame offsets:
#	182
#	11495
#	23192
#	35060
#	46765
#	59690
#	79632
#	89965
#	111875
#	124420
#	141067
#	158857
#	171787
#	183420
#	197202
#	216820
#	232692
#	242690
#	259992
#	272460
#
# Disc length: 3812 seconds
# Revision: 8
# Processed by: cddbd v1.5.2PL0 Copyright (c) Steve Scherf et al.
# Submitted via: dBpowerAMP V12.0
#
DISCID=1b0ee214
DTITLE=Various Artist - Blues Brother Soul Sister Vol. 1
DYEAR=1993
DGENRE=R&B
TTITLE0=John Lee Hooker - Boom Boom
TTITLE1=Erma Franklin - (Take a Little) Piece of My Heart
TTITLE2=Sam and Dave - Soul Man
TTITLE3=Etta James - I'd Rather Go Blind
TTITLE4=Booker T. and the MG's - Green Onions
TTITLE5=Isley Brothers, The - Shout
TTITLE6=Aretha Franklin - Think
TTITLE7=The Staple Singers - Respect Yourself
TTITLE8=Bob and Earl - Harlem Shuffle
TTITLE9=Al Green - Take Me to the River
TTITLE10=Muddy Waters - Mannish Boy
TTITLE11=Fontella Bass - Rescue Me
TTITLE12=Wilson Pickett - In the Midnight Hour
TTITLE13=Eddie Floyd - Knock on Wood
TTITLE14=Little Milton - Stormy Monday
TTITLE15=Dobie Gray - Drift Away
TTITLE16=Betty Everett - It's in His Kiss
TTITLE17=Fleetwood Mac - Need Your Love So Bad
TTITLE18=Ann Peebles - I'm Gonna Tear Your Playhouse Down
TTITLE19=Ben E. King - Stand by Me
EXTD=
EXTT0=
EXTT1=
EXTT2=
EXTT3=
EXTT4=
EXTT5=
EXTT6=
EXTT7=
EXTT8=
EXTT9=
EXTT10=
EXTT11=
EXTT12=
EXTT13=
EXTT14=
EXTT15=
EXTT16=
EXTT17=
EXTT18=
EXTT19=
PLAYORDER=
